<svg version="1.2" xmlns="http://www.w3.org/2000/svg" viewBox="0 0 450 450" width="450" height="450">
	<title>dog</title>
	<style>
		.s0 { fill: #000000 } 
	</style>
	<path id="Форма 1" fill-rule="evenodd" class="s0" d="m259.2 226.2l13-57.9c1.1-4.8 6.7-8.3 13.3-8.3 4.2 0 8.2 1.5 10.8 4l9.5 9.4h29.5c7.2 0 14.1 2.1 19.2 5.9l10.2 7.5h31.7c7.5 0 13.6 4.4 13.6 10v10c0 18.5-20.3 33.5-45.3 33.5h-39.2l-2.9 12.7zm60.2 40.8v93.6c0 7.4-8.1 13.4-18.1 13.4h-18.1c-10 0-18.1-6-18.1-13.4v-48.2c-13.6 5.2-29 8.1-45.3 8.1-16.3 0-31.7-2.9-45.3-8.1v48.2c0 7.4-8.1 13.4-18.1 13.4h-18.2c-10 0-18.1-6-18.1-13.4v-96.2c-16.3-4.6-29.1-14.8-33.5-27.8l-2.2-6.5c-2.4-7.2 3.5-14.4 13.2-16.2 9.8-1.8 19.6 2.5 22 9.7l2.2 6.5c2 5.9 9.2 10.1 17.6 10.1h116.5zm27.2-73.6c0-1.8-1-3.5-2.7-4.7-1.7-1.3-4-2-6.4-2-2.4 0-4.7 0.7-6.4 2-1.7 1.2-2.6 2.9-2.6 4.7 0 1.8 0.9 3.5 2.6 4.7 1.7 1.3 4 2 6.4 2 2.4 0 4.7-0.7 6.4-2 1.7-1.2 2.7-2.9 2.7-4.7z"/>
</svg>